<svg xmlns="http://www.w3.org/2000/svg" viewBox="0 0 500 500"><g id="freepik--background-simple--inject-214"><path d="M396,165.74c-27.1-19.59-67.28-21.13-93.39-.23-14.84,11.88-24,29.2-34.5,45.05S244.21,242,225.85,247c-19.82,5.33-40.75-3-61.24-1.69-27.19,1.71-51.72,21.5-61.53,46.92s-5.61,55.2,8.66,78.42,37.8,40,63.66,48.59c74.66,26.74,173.31-1.66,224.82-62,21.72-25.43,34.22-70.39,35.53-103.81S423.05,185.33,396,165.74Z" style="fill:#ebebeb"></path><circle cx="167.08" cy="170.07" r="43.98" transform="translate(-53.22 78.91) rotate(-23.03)" style="fill:#ebebeb"></circle></g><g id="freepik--Plant--inject-214"><polygon points="68.51 439.34 74.26 477.11 107.65 477.11 115.4 439.89 68.51 439.34" style="fill:#FF725E"></polygon><path d="M110.73,463.55c0,.11-8.56.19-19.11.19s-19.11-.08-19.11-.19,8.56-.2,19.11-.2S110.73,463.44,110.73,463.55Z" style="fill:#fafafa"></path><path d="M110.86,461.69c0,.11-8.61.2-19.24.2s-19.24-.09-19.24-.2,8.62-.19,19.24-.19S110.86,461.58,110.86,461.69Z" style="fill:#fafafa"></path><path d="M110.79,459.59c0,.11-8.61.2-19.23.2s-19.24-.09-19.24-.2,8.61-.19,19.24-.19S110.79,459.49,110.79,459.59Z" style="fill:#fafafa"></path><path d="M78.09,475a31.61,31.61,0,0,1-1-4.76,31.17,31.17,0,0,1-.64-4.82,29.54,29.54,0,0,1,1,4.75A29.21,29.21,0,0,1,78.09,475Z" style="fill:#fafafa"></path><path d="M80.37,474.56a37.36,37.36,0,0,1-.42-4.64,37.83,37.83,0,0,1-.22-4.66,21.82,21.82,0,0,1,.61,4.63A23,23,0,0,1,80.37,474.56Z" style="fill:#fafafa"></path><path d="M84.51,474.55a22.74,22.74,0,0,1-.87-4.75,23.42,23.42,0,0,1-.26-4.83,43.24,43.24,0,0,1,.65,4.78A44,44,0,0,1,84.51,474.55Z" style="fill:#fafafa"></path><path d="M87.41,474.75a23.73,23.73,0,0,1-.46-4.83,23,23,0,0,1,.15-4.85,42.71,42.71,0,0,1,.24,4.84A40.17,40.17,0,0,1,87.41,474.75Z" style="fill:#fafafa"></path><path d="M92.56,474.56a54.28,54.28,0,0,1-.31-9.19A28.76,28.76,0,0,1,92.6,470,27.73,27.73,0,0,1,92.56,474.56Z" style="fill:#fafafa"></path><path d="M96.31,474.76a31,31,0,0,1-.15-4.75,28.66,28.66,0,0,1,.23-4.74,28.53,28.53,0,0,1,.16,4.74A28.25,28.25,0,0,1,96.31,474.76Z" style="fill:#fafafa"></path><path d="M99.84,474.25a61.38,61.38,0,0,1,1-9.88,32.46,32.46,0,0,1-.29,5A30.89,30.89,0,0,1,99.84,474.25Z" style="fill:#fafafa"></path><path d="M104.38,473.76a17.09,17.09,0,0,1,.56-4.22,17.51,17.51,0,0,1,1.24-4.07,36.48,36.48,0,0,1-.85,4.15A37.94,37.94,0,0,1,104.38,473.76Z" style="fill:#fafafa"></path><path d="M64.68,431.86v7.07a2.77,2.77,0,0,0,2.78,2.78h48.36a2.78,2.78,0,0,0,2.78-2.78v-7.07Z" style="fill:#FF725E"></path><g style="opacity:0.4"><polygon points="68.87 441.71 69.27 443.96 113.89 447.14 115.02 441.71 68.87 441.71"></polygon></g><path d="M82.22,431.84c-7.11-4.12-10.91-13.7-11.19-21.54s3-16,9.41-20.53c6.78-4.73,16.43-4.65,23.39-.19a24.33,24.33,0,0,1,10.72,21.13,28,28,0,0,1-11.47,21.05" style="fill:#455a64"></path><path d="M93.56,432.6a9,9,0,0,1-.13-1.8c0-1.28-.09-2.92-.14-4.89-.11-4.13-.27-9.83-.55-16.13s-.61-12-.87-16.11c-.12-2-.22-3.61-.29-4.89a10.35,10.35,0,0,1,0-1.8,8.73,8.73,0,0,1,.29,1.78c.14,1.15.31,2.81.5,4.87.38,4.12.79,9.82,1.07,16.13s.36,12,.35,16.15c0,2.06,0,3.74-.07,4.89A10,10,0,0,1,93.56,432.6Z" style="fill:#fff"></path><path d="M73.13,408.52c0,.18-1.15.24-2.53.13s-2.49-.36-2.48-.54,1.15-.24,2.53-.13S73.15,408.34,73.13,408.52Z" style="fill:#263238"></path><path d="M73.52,401.48c-.08.17-1-.1-2.18-.6s-2-1.05-1.92-1.21,1,.1,2.19.6S73.59,401.32,73.52,401.48Z" style="fill:#263238"></path><path d="M77.14,396.26c-.1.15-1.19-.37-2.34-1.31s-1.86-1.93-1.72-2.05,1,.62,2.15,1.53S77.24,396.1,77.14,396.26Z" style="fill:#263238"></path><path d="M80.78,391.33c-.17.08-.69-.75-1.17-1.84s-.74-2-.57-2.1.69.75,1.17,1.83S81,391.26,80.78,391.33Z" style="fill:#263238"></path><path d="M86.49,387.84c-.16.07-.73-.8-1.1-2s-.41-2.26-.23-2.29.5.93.86,2.09S86.66,387.76,86.49,387.84Z" style="fill:#263238"></path><path d="M96,383.89c.17.06.06.81-.24,1.67s-.69,1.51-.86,1.45-.07-.81.23-1.67S95.85,383.83,96,383.89Z" style="fill:#263238"></path><path d="M103.1,386.93c.12.13-.33.76-1,1.39s-1.34,1-1.47.9.33-.76,1-1.39S103,386.79,103.1,386.93Z" style="fill:#263238"></path><path d="M109.32,391c.11.15-.45.7-1.23,1.24s-1.51.84-1.61.68.45-.7,1.24-1.23S109.22,390.8,109.32,391Z" style="fill:#263238"></path><path d="M113.74,396.94c.08.17-.8.7-1.94,1.19s-2.14.75-2.21.58.8-.7,2-1.19S113.67,396.77,113.74,396.94Z" style="fill:#263238"></path><path d="M115.48,403.48c0,.18-.86.44-2,.58s-2,.1-2.06-.08.87-.44,2-.58S115.46,403.3,115.48,403.48Z" style="fill:#263238"></path><path d="M116.39,411.53c-.07.16-1-.08-2.11-.56s-1.92-1-1.85-1.16,1,.08,2.12.55S116.46,411.36,116.39,411.53Z" style="fill:#263238"></path><path d="M115.59,418.43c-.06.17-1.25-.12-2.5-.94s-2-1.79-1.86-1.91,1,.59,2.23,1.36S115.66,418.25,115.59,418.43Z" style="fill:#263238"></path><path d="M112,424.72c-.11.14-1.06-.42-2-1.4s-1.4-2-1.25-2.08.86.68,1.74,1.62S112.11,424.57,112,424.72Z" style="fill:#263238"></path><path d="M77.86,425.46c.08.16-.92.85-2.23,1.53s-2.45,1.11-2.54.95.91-.85,2.23-1.54S77.77,425.29,77.86,425.46Z" style="fill:#263238"></path><path d="M74.74,419.77c.08.17-.72.69-1.79,1.18s-2,.73-2.06.57.72-.7,1.79-1.18S74.66,419.6,74.74,419.77Z" style="fill:#263238"></path><path d="M72.45,414.73c0,.19-1,.48-2.2.65s-2.27.17-2.3,0,1-.47,2.2-.65S72.42,414.55,72.45,414.73Z" style="fill:#263238"></path><path d="M80,412c0,.17-.91.62-2.19.76s-2.32-.08-2.31-.25,1-.27,2.23-.41S79.91,411.78,80,412Z" style="fill:#263238"></path><path d="M86.21,405.74c.06.17-.71.56-1.74.66s-1.86-.13-1.84-.3.82-.26,1.77-.36S86.16,405.56,86.21,405.74Z" style="fill:#263238"></path><path d="M87.41,400.76c-.06.18-.89.05-1.85-.28s-1.7-.75-1.64-.92.89,0,1.85.29S87.47,400.59,87.41,400.76Z" style="fill:#263238"></path><path d="M89.7,395.73c-.13.13-.7-.25-1.11-1s-.44-1.39-.27-1.44.49.48.85,1.1S89.83,395.6,89.7,395.73Z" style="fill:#263238"></path><path d="M86.94,416.34c0,.18-.68.51-1.61.74a6.19,6.19,0,0,1-1.34.2l-.13-.39c.24-.05.39,0,.42,0s-.06.2-.26.34l-.13-.38a5.87,5.87,0,0,1,1.29-.45C86.1,416.2,86.89,416.16,86.94,416.34Z" style="fill:#263238"></path><path d="M88.22,425.17c.07.17-.84.69-2,1.16s-2.22.71-2.29.54.85-.69,2-1.16S88.16,425,88.22,425.17Z" style="fill:#263238"></path><path d="M81.17,421.25c.06.17-.55.54-1.37.81s-1.51.36-1.57.19.55-.54,1.36-.82S81.11,421.07,81.17,421.25Z" style="fill:#263238"></path><path d="M81.71,403.28c0,.18-1.11.07-2.33-.36s-2.12-1-2-1.19,1.07.14,2.27.56S81.75,403.1,81.71,403.28Z" style="fill:#263238"></path><path d="M98.78,401.33c.1.15-.5.72-1.33,1.28s-1.61.88-1.71.72.5-.72,1.34-1.28S98.68,401.17,98.78,401.33Z" style="fill:#263238"></path><path d="M99.71,410.19c0,.18-.59.46-1.4.63s-1.51.16-1.54,0,.59-.46,1.4-.63S99.67,410,99.71,410.19Z" style="fill:#263238"></path><path d="M100.79,420.16c-.08.17-1-.09-2-.57s-1.82-1-1.74-1.17,1,.08,2,.57S100.87,420,100.79,420.16Z" style="fill:#263238"></path><path d="M98.5,429.86c-.14.12-.73-.36-1.31-1.07s-.94-1.38-.8-1.5.73.37,1.32,1.08S98.65,429.75,98.5,429.86Z" style="fill:#263238"></path><path d="M98,394.8c.11.14-.28.63-.94,1s-1.29.35-1.34.17.44-.47,1-.77S97.92,394.65,98,394.8Z" style="fill:#263238"></path><path d="M106.4,403.74c.07.17-.71.6-1.77.74s-1.92-.05-1.9-.23.82-.29,1.81-.43S106.34,403.56,106.4,403.74Z" style="fill:#263238"></path><path d="M104.74,395.72c.08.16-.69.71-1.78,1s-2,.35-2.07.18.83-.48,1.87-.81S104.65,395.55,104.74,395.72Z" style="fill:#263238"></path><path d="M108.23,416.17c0,.18-1.32.3-2.9,0s-2.78-.86-2.72-1,1.31.1,2.84.37S108.24,416,108.23,416.17Z" style="fill:#263238"></path><path d="M105.12,427.83c-.11.14-1.08-.43-2-1.4s-1.54-1.94-1.39-2.05.92.64,1.86,1.58S105.24,427.68,105.12,427.83Z" style="fill:#263238"></path><path d="M91.45,386.23a30.35,30.35,0,0,0-5.84,4.61,28.49,28.49,0,0,0-7.27,16.07,36.51,36.51,0,0,0,.44,9.85,73.6,73.6,0,0,0,1.85,7.9c.64,2.23,1.22,4,1.62,5.24a14.49,14.49,0,0,1,.56,1.94A10.52,10.52,0,0,1,82,430c-.47-1.21-1.12-3-1.82-5.19a66.24,66.24,0,0,1-2-7.94,35.65,35.65,0,0,1-.5-10,28,28,0,0,1,7.6-16.31,20.55,20.55,0,0,1,4.35-3.41,13.66,13.66,0,0,1,1.33-.69A1.75,1.75,0,0,1,91.45,386.23Z" style="fill:#fff"></path><path d="M100.53,432.27a70.27,70.27,0,0,0,3-7.15,40.46,40.46,0,0,0,1.79-18.39,34.64,34.64,0,0,0-2.83-9.8,23.25,23.25,0,0,0-4.84-6.74,17.39,17.39,0,0,0-4.74-3c-1.23-.51-2-.63-2-.69a1.7,1.7,0,0,1,.54,0A10.17,10.17,0,0,1,93,387a16.42,16.42,0,0,1,5,2.88,22.72,22.72,0,0,1,5.08,6.82,34.23,34.23,0,0,1,2.94,10,39,39,0,0,1-2,18.63c-.38,1.15-.86,2.14-1.22,3s-.79,1.6-1.11,2.19A13,13,0,0,1,100.53,432.27Z" style="fill:#fff"></path></g><g id="freepik--Character--inject-214"><path d="M114,260.32S87.76,325,83.53,341.51c-4.66,18.25-1.25,32.85,22,35.12,19.3,1.89,82.29-23.07,82.29-23.07l-7.7-48.08L124.39,328l13.5-62.45Z" style="fill:#ffbe9d"></path><path d="M144.14,221c-1.55-.87-5.36-6.05-5.36-6.05s-2.76-18-4-21.78-4.67-2.77-5.39-1.38,1.41,31.8,1.41,31.8l-11.23,5.88L111.81,234a9.26,9.26,0,0,0-2.07,4.15c-.34,2.25,4.15,24.55,4.15,24.55l23.71,4.18c6.11-5.79,9.56-14.86,11.21-26.14V223.93S145.7,221.85,144.14,221Z" style="fill:#ffbe9d"></path><path d="M124.58,227.12a2.94,2.94,0,0,1,.67-.06l1.93,0,3,0h.92a3.37,3.37,0,0,1,.52,0,2.37,2.37,0,0,1,.5.2,2.78,2.78,0,0,1,1.3,1.79c.37,3,.73,6.51,1.25,10.43.26,1.95.53,4,.94,6.1a6.43,6.43,0,0,0,.43,1.49,2,2,0,0,0,1,1,3.81,3.81,0,0,0,3-.4,5.11,5.11,0,0,0,1.28-1,3.13,3.13,0,0,0,.39-1.45,23.24,23.24,0,0,0,0-3.23c-.11-2.13-.33-4.19-.59-6.14s-.55-3.81-.88-5.52a18,18,0,0,0-.61-2.43,10.14,10.14,0,0,0-1-2.06,15.11,15.11,0,0,0-1.25-1.69,4.25,4.25,0,0,0-1.37-1.2,3.67,3.67,0,0,0-2.85-.22l-1.8.66a2.82,2.82,0,0,1-.65.2,3.17,3.17,0,0,1,.61-.3c.4-.17,1-.43,1.77-.75a3.82,3.82,0,0,1,3,.15,4.38,4.38,0,0,1,1.49,1.24,14.78,14.78,0,0,1,1.31,1.71,10.83,10.83,0,0,1,1.09,2.12,16.39,16.39,0,0,1,.65,2.48c.36,1.73.66,3.58.94,5.54s.5,4,.62,6.18a24.57,24.57,0,0,1,0,3.32,3.4,3.4,0,0,1-.53,1.73,5.14,5.14,0,0,1-1.42,1.08,4.27,4.27,0,0,1-3.46.42,2.48,2.48,0,0,1-1.31-1.22,6.74,6.74,0,0,1-.47-1.62c-.41-2.13-.67-4.18-.92-6.14-.49-3.91-.82-7.49-1.13-10.41a2.4,2.4,0,0,0-1.11-1.58,1.52,1.52,0,0,0-.86-.22l-.91,0-3-.07-1.93-.05A5,5,0,0,1,124.58,227.12Z" style="fill:#eb996e"></path><path d="M136.12,247.6a1.49,1.49,0,0,1,.14.65,3.78,3.78,0,0,1-.29,1.87,3.38,3.38,0,0,1-2.18,2,3.58,3.58,0,0,1-3.58-1.21h0v0a11.27,11.27,0,0,1-1-4.17c-.12-1.52-.09-3.12-.24-4.73a19.43,19.43,0,0,0-2.1-6.61c-.48-1-.9-1.92-1.39-2.72a5.68,5.68,0,0,0-.8-1.09,2,2,0,0,0-1-.65,14.69,14.69,0,0,0-3.75-.77,9.08,9.08,0,0,0-1.41,0c0-.13,2.08-.57,5.29.41a3.56,3.56,0,0,1,.61.27,2.7,2.7,0,0,1,.55.45,6.72,6.72,0,0,1,.87,1.14c.53.84,1,1.77,1.45,2.74a19.26,19.26,0,0,1,2.18,6.77c.16,1.66.12,3.25.24,4.74a10.79,10.79,0,0,0,.93,4l0,0a3.21,3.21,0,0,0,3.15,1.13,3.16,3.16,0,0,0,2-1.72,4.14,4.14,0,0,0,.4-1.76A4.58,4.58,0,0,1,136.12,247.6Z" style="fill:#eb996e"></path><path d="M129.27,249.45s.24.39-.07,1a3.68,3.68,0,0,1-.69,1,2.67,2.67,0,0,1-1.41.85,2.74,2.74,0,0,1-1.95-.49,4,4,0,0,1-1.38-1.8,10,10,0,0,1-.66-5,10.45,10.45,0,0,1,.43-2l.08.27a9.42,9.42,0,0,1-2.82-3.9l.26.13a6.16,6.16,0,0,1-4.43-.61,5.77,5.77,0,0,1-1-.74c-.2-.21-.3-.33-.28-.34s.48.39,1.42.85a6.24,6.24,0,0,0,4.2.42l.19-.05.07.18a9.43,9.43,0,0,0,2.74,3.67l.13.11,0,.16a10.47,10.47,0,0,0-.41,1.88,10,10,0,0,0,.59,4.78,3.78,3.78,0,0,0,1.19,1.64A2.37,2.37,0,0,0,127,252a2.3,2.3,0,0,0,1.26-.69,3.58,3.58,0,0,0,.72-.88A1.66,1.66,0,0,0,129.27,249.45Z" style="fill:#eb996e"></path><path d="M120.1,235.05c.15,0,0,1,.35,2.13s.71,2.08.56,2.14a3.84,3.84,0,0,1-1.06-2A2.57,2.57,0,0,1,120.1,235.05Z" style="fill:#eb996e"></path><path d="M122.29,243.11c0,.15-1.74-.33-3.87-.2s-3.76.78-3.82.63a8.39,8.39,0,0,1,7.69-.43Z" style="fill:#eb996e"></path><path d="M144.52,228.74a1.67,1.67,0,0,1-.78.07,5.6,5.6,0,0,1-2.06-.53,7.9,7.9,0,0,1-2.53-1.88,13.73,13.73,0,0,1-2.12-3.22c-1.33-2.37-1.64-5.15-.67-6.8a2.31,2.31,0,0,1,1.73-1.25,1.2,1.2,0,0,1,.78.16c0,.05-.29,0-.75,0a2.19,2.19,0,0,0-1.44,1.23,4.94,4.94,0,0,0-.36,2.9,8.58,8.58,0,0,0,.39,1.73,18.87,18.87,0,0,0,.79,1.76,14.75,14.75,0,0,0,2,3.13,8.39,8.39,0,0,0,2.34,1.87A8.66,8.66,0,0,0,144.52,228.74Z" style="fill:#eb996e"></path><path d="M145.92,243.65c-.16,0-.56-1.76-1.73-3.65s-2.57-3.09-2.46-3.21a9,9,0,0,1,4.19,6.86Z" style="fill:#eb996e"></path><path d="M135.21,199c.12.07-.25,1-1,1.92s-1.61,1.48-1.69,1.38.55-.81,1.28-1.71S135.08,199,135.21,199Z" style="fill:#eb996e"></path><path d="M140.69,229.6c-.15,0-.21-.48-.15-1s.23-1,.37-1,.21.48.15,1S140.83,229.61,140.69,229.6Z" style="fill:#eb996e"></path><path d="M109.17,353.34a4.73,4.73,0,0,1,.75-.94c.52-.57,1.25-1.41,2.13-2.46a74.58,74.58,0,0,0,6.3-8.68,76,76,0,0,0,5-9.5c.55-1.26,1-2.28,1.26-3a5.11,5.11,0,0,1,.5-1.09,5.9,5.9,0,0,1-.31,1.16c-.23.74-.6,1.79-1.11,3.08a63,63,0,0,1-4.87,9.63,62.22,62.22,0,0,1-6.47,8.64c-.92,1-1.7,1.83-2.26,2.36A6.21,6.21,0,0,1,109.17,353.34Z" style="fill:#eb996e"></path><path d="M326.85,350.68l31.5,7.36-6.54-42.3-26.08-13.42a96.6,96.6,0,0,0-31.79-9.92l-17.68-2.29-48.31.23c-10.86-1.25-25.73,2.5-43.88,11.1l-39.22,17.09,22.36,45.22,24.45-7.49,2.17,19.9,5.3,64.89L194.6,477h119l-8.84-18.67a41.88,41.88,0,0,1-3-27.22l15.38-74.19A8.05,8.05,0,0,1,326.85,350.68Z" style="fill:#FF725E"></path><path d="M313.6,477h-119v0l4.53-35.91-5.31-64.88-2.16-19.88-24.45,7.49v0l-22.37-45.25h0l39.22-17.09a138.16,138.16,0,0,1,24.68-9.24c7.33-1.85,13.8-2.48,19.21-1.85l48.31-.24,17.69,2.3a96.35,96.35,0,0,1,31.79,9.91l26.09,13.44h0l6.55,42.33h0l-31.5-7.36a8,8,0,0,0-9.68,6.18l-15.39,74.19a41.8,41.8,0,0,0,3,27.21Zm-119-.05H313.52L304.7,458.3a41.81,41.81,0,0,1-3-27.24l15.38-74.19a8.08,8.08,0,0,1,9.74-6.22L358.32,358l-6.53-42.24-26.07-13.42a96.3,96.3,0,0,0-31.78-9.91l-17.68-2.3-48.31.24c-5.41-.62-11.87,0-19.2,1.85a137.32,137.32,0,0,0-24.67,9.24l-39.2,17.08,22.34,45.18,24.46-7.5v0l2.16,19.9,5.31,64.89Z" style="fill:#263238"></path><path d="M193.83,376.16a10.61,10.61,0,0,1-.22-1.73c-.12-1.2-.27-2.79-.46-4.72-.4-4-1.07-9.47-2.08-15.49s-2.2-11.43-3.13-15.33c-.45-1.88-.83-3.43-1.11-4.61a11.89,11.89,0,0,1-.37-1.7,10.76,10.76,0,0,1,.56,1.65c.33,1.07.77,2.63,1.28,4.57,1,3.88,2.26,9.29,3.28,15.33s1.63,11.55,1.94,15.55c.16,2,.25,3.62.29,4.74A11.55,11.55,0,0,1,193.83,376.16Z" style="fill:#263238"></path><path d="M330.06,335.67c.06.08-1.48,1.06-3.71,3a42.27,42.27,0,0,0-3.68,3.56,41.2,41.2,0,0,0-6.94,10.4,43.8,43.8,0,0,0-1.88,4.77c-.89,2.79-1.2,4.58-1.3,4.56a5.73,5.73,0,0,1,.15-1.27c.07-.4.16-.9.3-1.47s.27-1.22.5-1.92a37.5,37.5,0,0,1,1.79-4.87,42.79,42.79,0,0,1,3.08-5.55,40.9,40.9,0,0,1,3.95-5,36.65,36.65,0,0,1,3.8-3.53c.56-.48,1.11-.85,1.59-1.2s.89-.62,1.24-.84A6.5,6.5,0,0,1,330.06,335.67Z" style="fill:#263238"></path><path d="M263.54,376s0,.05-.05.17l-.16.5-.69,1.95L260,386c-2.35,6.41-5.7,15.52-9.7,26.43L250,413l-.21-.59c-3.7-10.21-8.06-22.21-12.69-35-.19-.51-.37-1-.55-1.51l0-.09,0-.09L250,341.06l.22-.54.2.54L260,366.37l2.64,7.08c.29.79.52,1.41.68,1.86.07.19.12.35.17.47s.05.17,0,.17a.87.87,0,0,1-.08-.17l-.2-.47-.75-1.86c-.64-1.65-1.58-4-2.76-7.05L250,341.22h.42c-3.88,10.09-8.46,22-13.35,34.69v-.18c.18.49.36,1,.55,1.51l12.63,35h-.43c4.07-10.85,7.47-19.92,9.87-26.3l2.81-7.38c.32-.84.57-1.49.76-1.95l.2-.5C263.51,376,263.53,376,263.54,376Z" style="fill:#fafafa"></path><path d="M291.74,376.74s0,.05,0,.16l-.17.51q-.25.69-.69,1.95l-2.69,7.41c-2.35,6.41-5.7,15.52-9.7,26.43l-.21.58-.22-.59c-3.7-10.21-8-22.21-12.69-35l-.55-1.51,0-.09,0-.09c4.93-12.71,9.52-24.58,13.43-34.66l.21-.54.2.54c4,10.46,7.27,19.18,9.59,25.31l2.64,7.08c.29.79.52,1.41.68,1.86.07.19.12.35.17.47s.05.17,0,.17l-.08-.17-.2-.47c-.18-.45-.43-1.07-.74-1.86L288,367.19c-2.36-6.1-5.72-14.77-9.74-25.18h.41c-3.88,10.09-8.45,22-13.35,34.69v-.19l.55,1.51c4.61,12.79,8.94,24.8,12.63,35H278c4.07-10.85,7.48-19.92,9.87-26.3l2.81-7.39.76-2,.2-.5A1.78,1.78,0,0,1,291.74,376.74Z" style="fill:#fafafa"></path><path d="M306.19,413.48a6.61,6.61,0,0,1-.31-.71c-.2-.52-.46-1.2-.8-2.06l-2.84-7.63L293,377.84c-.09-.27-.19-.54-.28-.79l0-.09,0-.09c3.74-9.58,7.1-18.22,9.55-24.52l2.94-7.38c.34-.83.62-1.49.82-2a6.93,6.93,0,0,1,.32-.69,3.58,3.58,0,0,1-.22.72l-.73,2c-.68,1.81-1.62,4.34-2.79,7.44-2.41,6.32-5.73,15-9.4,24.58v-.18c.09.24.19.51.28.78,3.54,9.85,6.73,18.77,9.07,25.29,1.12,3.21,2,5.82,2.69,7.69.3.87.53,1.57.71,2.09A3.5,3.5,0,0,1,306.19,413.48Z" style="fill:#fafafa"></path><path d="M236.83,375.81a1.08,1.08,0,0,1-.05.17l-.17.5c-.16.47-.39,1.12-.69,2-.63,1.73-1.53,4.24-2.68,7.41-2.36,6.41-5.7,15.52-9.71,26.42l-.21.59-.21-.59c-3.71-10.21-8.06-22.21-12.7-35l-.54-1.51,0-.09,0-.09,13.42-34.66.21-.54.21.54,9.58,25.31c1.14,3,2,5.41,2.65,7.07.29.8.51,1.42.68,1.87.06.19.12.35.16.47a1.27,1.27,0,0,1,.05.16s0-.05-.08-.16-.12-.28-.2-.47l-.75-1.86c-.65-1.66-1.58-4-2.77-7.06l-9.74-25.17h.42c-3.89,10.09-8.46,22-13.35,34.69v-.19l.54,1.51c4.62,12.79,8.95,24.8,12.63,35h-.42l9.86-26.3c1.21-3.16,2.15-5.65,2.81-7.39.33-.83.58-1.48.76-1.95l.21-.5A.48.48,0,0,1,236.83,375.81Z" style="fill:#fafafa"></path><path d="M192.28,361.92a1.46,1.46,0,0,1,.05-.39c0-.29.12-.66.21-1.12.2-1,.49-2.46.85-4.27.78-3.73,1.87-9,3.19-15.31l.14-.71.27.68c2.8,7.28,6.17,16,9.79,25.46,1.23,3.2,2.42,6.32,3.57,9.33l0,.09,0,.09-9.73,26-2.9,7.61c-.34.86-.61,1.54-.8,2a5.05,5.05,0,0,1-.31.69,4.08,4.08,0,0,1,.22-.72l.72-2.07c.66-1.84,1.6-4.43,2.76-7.66,2.41-6.55,5.75-15.64,9.56-26v.18c-1.15-3-2.35-6.13-3.57-9.33L196.58,341l.42,0c-1.39,6.31-2.55,11.56-3.37,15.27-.41,1.8-.73,3.22-1,4.24l-.27,1.12A1.41,1.41,0,0,1,192.28,361.92Z" style="fill:#fafafa"></path><polygon points="313.63 357.38 306.35 343.45 306.39 343.43 313.67 357.35 313.63 357.38" style="fill:#fafafa"></polygon><path d="M271.47,427.08a2.43,2.43,0,0,1-.34.48l-1.05,1.31c-.91,1.13-2.29,2.72-4,4.64s-3.91,4.15-6.4,6.53-5.32,4.89-8.4,7.39-6.15,4.74-9,6.69-5.47,3.59-7.72,4.9-4.09,2.33-5.39,3l-1.49.76a3.8,3.8,0,0,1-.54.23,3.21,3.21,0,0,1,.49-.32l1.45-.83c1.27-.71,3.09-1.76,5.31-3.11s4.81-3,7.64-5,5.84-4.21,8.93-6.7,5.89-5,8.4-7.34,4.68-4.54,6.45-6.44,3.2-3.44,4.15-4.53l1.12-1.25A3.7,3.7,0,0,1,271.47,427.08Z" style="fill:#263238"></path><g style="opacity:0.30000000000000004"><path d="M207.34,393.46c5.14,2.62,11.91,2.4,17.91,1s11.55-3.94,17.4-5.76,12.34-2.93,18.16-1.44c4.56,1.16,8.59,3.88,13.43,3.78,3-.07,6.1-1.25,9-.68a5.94,5.94,0,0,1,4.59,7.8c-1.2,3.15-4.74,5.48-8.55,6.68-9.8,3.08-20.46-.26-30.85.05-6.17.18-12.22,1.66-18.34,2.45s-12.71.82-17.94-1.66-8.44-8.12-5.68-12.68"></path></g><path d="M317.2,300.47a7.32,7.32,0,0,1-.53,1.31c-.19.41-.42.91-.66,1.51s-.53,1.26-.79,2a48.48,48.48,0,0,0-1.64,5.42,46.91,46.91,0,0,0-1.22,13.77,45.63,45.63,0,0,0,.66,5.62c.12.8.3,1.51.42,2.14s.26,1.17.38,1.6a8.62,8.62,0,0,1,.3,1.38,6.57,6.57,0,0,1-.49-1.32,16.05,16.05,0,0,1-.47-1.59c-.15-.63-.36-1.34-.5-2.14a41,41,0,0,1-.78-5.66,47.19,47.19,0,0,1,.06-7,48.08,48.08,0,0,1,1.17-6.9,42,42,0,0,1,1.77-5.44c.28-.77.6-1.43.87-2a15.6,15.6,0,0,1,.74-1.48A8.31,8.31,0,0,1,317.2,300.47Z" style="fill:#263238"></path><path d="M195.8,297c.06,0-.6,1-1.55,2.6a44.11,44.11,0,0,0-3.2,6.52,44.91,44.91,0,0,0-2.06,7,28.82,28.82,0,0,1-.61,3,2.33,2.33,0,0,1,0-.82c0-.53.12-1.29.26-2.21a35.24,35.24,0,0,1,5.3-13.61c.53-.79,1-1.4,1.31-1.81S195.77,297,195.8,297Z" style="fill:#263238"></path><g style="opacity:0.30000000000000004"><path d="M186.78,335c-1.11,3.74-2.2,7.59-1.84,11.47s2.54,7.85,6.19,9.2q-1.59-10.29-3.92-20.44"></path></g><path d="M271.94,193.32a7.69,7.69,0,0,1,6.86,7.82h0l-4.59,94C274,307.41,256.08,314.3,243,314h0c-13.27-3.14-13.76-11.1-13.92-22.77-.28-19.5-.19-12.66-.2-12.55s-16.76-2.82-20.18-24.69c-1.71-10.88-1.12-28.72-.17-43.29.86-13.12,9.58-29.2,22.66-27.79Z" style="fill:#ffbe9d"></path><path d="M215.76,224.91a2.81,2.81,0,0,0,2.7,2.84,2.69,2.69,0,0,0,2.9-2.52,2.82,2.82,0,0,0-2.7-2.84A2.68,2.68,0,0,0,215.76,224.91Z" style="fill:#263238"></path><path d="M212.33,220.76c.34.37,2.47-1.2,5.49-1.18s5.23,1.53,5.56,1.16c.16-.17-.2-.83-1.16-1.53a7.65,7.65,0,0,0-4.44-1.38,7.34,7.34,0,0,0-4.38,1.4C212.47,219.94,212.16,220.6,212.33,220.76Z" style="fill:#263238"></path><path d="M245,225.23a2.81,2.81,0,0,0,2.7,2.84,2.69,2.69,0,0,0,2.89-2.53,2.79,2.79,0,0,0-2.69-2.83A2.67,2.67,0,0,0,245,225.23Z" style="fill:#263238"></path><path d="M242.26,220.76c.35.37,2.48-1.2,5.5-1.18s5.23,1.53,5.55,1.16c.16-.17-.18-.83-1.15-1.53a7.68,7.68,0,0,0-4.45-1.38,7.31,7.31,0,0,0-4.37,1.4C242.41,219.94,242.09,220.6,242.26,220.76Z" style="fill:#263238"></path><path d="M231,243c0-.17-1.86-.5-4.9-.89-.77-.08-1.5-.24-1.63-.76A4,4,0,0,1,225,239l2.29-5.86c3.19-8.35,5.49-15.22,5.16-15.34s-3.19,6.54-6.38,14.89c-.76,2.06-1.5,4-2.19,5.9a4.41,4.41,0,0,0-.41,3,1.92,1.92,0,0,0,1.26,1.13A5.17,5.17,0,0,0,226,243C229.08,243.13,231,243.14,231,243Z" style="fill:#263238"></path><path d="M228.83,278.68a55.59,55.59,0,0,0,29.31-7.74s-7.43,15.42-29.31,13.32Z" style="fill:#eb996e"></path><path d="M231.48,250.31c1.49-2.24,3.76-3.74,5.8-3.83a3.46,3.46,0,0,1,3.4,1.89,5.5,5.5,0,0,1-.49,5,4.6,4.6,0,0,1-4.57,2.21,7.68,7.68,0,0,1-3.78-2.46,2.67,2.67,0,0,1-.77-1.08,1.85,1.85,0,0,1,.24-1.58" style="fill:#eb996e"></path><path d="M239.87,245.08c-.49,0-.5,3.25-3.31,5.57s-6.3,1.95-6.33,2.41c0,.2.78.63,2.25.68a8.17,8.17,0,0,0,5.28-1.83,7.14,7.14,0,0,0,2.57-4.67C240.46,245.87,240.09,245.06,239.87,245.08Z" style="fill:#263238"></path><path d="M240.55,213.83c.37.79,3.33.11,6.9.18s6.51.76,6.91,0c.17-.37-.4-1.09-1.63-1.77a11.64,11.64,0,0,0-5.25-1.27,11.5,11.5,0,0,0-5.27,1.15C241,212.75,240.38,213.46,240.55,213.83Z" style="fill:#263238"></path><path d="M212.59,215.78c.67.69,3.25,0,6.35-.07s5.74.45,6.35-.26c.26-.35-.16-1-1.31-1.69a10.41,10.41,0,0,0-5.16-1.11,10.17,10.17,0,0,0-5.06,1.39C212.66,214.74,212.3,215.45,212.59,215.78Z" style="fill:#263238"></path><path d="M287.44,267.12s-.13,0-.38-.05a9.54,9.54,0,0,1-1.05-.29,9.89,9.89,0,0,1-3.5-2,6.31,6.31,0,0,1-2.14-5.49,4.18,4.18,0,0,1,1.89-3.06,2.09,2.09,0,0,1,2-.09,1.67,1.67,0,0,1,.9,1.88,1.49,1.49,0,0,1-.72.87,2.39,2.39,0,0,1-1,.25,4.32,4.32,0,0,1-1.91-.38,8.62,8.62,0,0,1-3-2,8.47,8.47,0,0,1-2.51-5.38,8.71,8.71,0,0,1,.62-4,6.24,6.24,0,0,1,.51-1c.13-.21.21-.32.23-.31s-.23.47-.55,1.35a9.06,9.06,0,0,0-.44,3.87,8.15,8.15,0,0,0,2.48,5.08,8.4,8.4,0,0,0,2.83,1.84,4.15,4.15,0,0,0,1.69.34,1.28,1.28,0,0,0,1.28-.76,1.19,1.19,0,0,0-.66-1.28,1.56,1.56,0,0,0-1.52.09,3.71,3.71,0,0,0-1.67,2.68,5.68,5.68,0,0,0,.4,3,6.49,6.49,0,0,0,1.52,2.18,10.73,10.73,0,0,0,3.32,2.06C287,266.94,287.45,267.08,287.44,267.12Z" style="fill:#263238"></path><path d="M234.4,170.08a6.63,6.63,0,0,1-2.39-8.27c-.92-1.3.16-3.23,1.66-3.76s3.14-.11,4.67.31c-.41-.73.68-1.36,1.51-1.49l5.79-.93a9,9,0,0,1-6-5.14,14,14,0,0,1-.83-8.07,3,3,0,0,1,1-2.07,21.68,21.68,0,0,1,4,6.77,5.72,5.72,0,0,1,4.14,2.09,1.58,1.58,0,0,1,2.37-.64c1.23-3.42,3.54-7,7.15-7.44-1.13-1.59.92-3.5,2.67-4.37a11.15,11.15,0,0,1,4-1.4,3.84,3.84,0,0,1,3.7,1.68c.69,1.25.05,3.16-1.36,3.4a4,4,0,0,1,1.4,4.69,3.94,3.94,0,0,1,4.75-1,15.21,15.21,0,0,1,8-1.16,3.81,3.81,0,0,1,1.95.68c.41.34.68.83,1.1,1.15a4.14,4.14,0,0,0,2.15.57,8.53,8.53,0,0,1,4.8,1.76,4.15,4.15,0,0,1,1.3,4.66c4,1.29,7.95-3.3,12.07-2.48,2.41.47,4.08,2.68,5.13,4.91a13.76,13.76,0,0,1-6.44.94,2.75,2.75,0,0,1-2.65,2.11,1.61,1.61,0,0,1-.92,2.51,14.13,14.13,0,0,1,7.68.13c3.85.9,8.07,2.92,9,6.77a12.42,12.42,0,0,1,0,4.17c-.24,2.08-1.3,4.8-3.36,4.42-1.26-.24-1.92-1.59-2.6-2.69a10.9,10.9,0,0,0-6.7-4.84c-1,.95.84,2.17,1.63,3.29s.47,2.6.66,3.93c.31,2,1.8,3.66,2.69,5.51,1.93,4,.92,8.73-.13,13-.28,1.18-1.61,2.63-2.34,1.66a3.25,3.25,0,0,1,2.45,3.32,9.46,9.46,0,0,1-1.39,4.23c-.29.57-.65,1.2-1.28,1.34-.9.22-1.64-.69-2.12-1.49l-3.93-6.45a10,10,0,0,1-.1,4.45c-.64,2.83-2.32,5.72-5.09,6.55-1.91.57-3.95.06-5.88-.44" style="fill:#263238"></path><path d="M277.45,238.09c-.85-.36-4.26,1-4.83.31-2.85-3.71-4.4-14.3-5.11-18.92s2.18-9.79,1.74-14.45c-.35-3.73-1-7.66-3.52-10.47a13.68,13.68,0,0,0-5.65-3.62,21.91,21.91,0,0,0-19.85,2.64c-2.34,1.66-4.56,3.88-7.42,4.15s-5.41-1.48-7.86-2.94-5.47-2.75-8.06-1.56a8,8,0,0,0-2.57,2.1c-1.78,2-5.45,11-5.51,14.55,0,0-1.81-8.25,1.31-15.88,3.76-9.21,13.89-19.63,30-22.25,25.85-4.2,38,10.19,42.56,20.48,2,4.41,3.61,16,2.18,24.9A64.29,64.29,0,0,1,277.45,238.09Z" style="fill:#263238"></path><path d="M284.39,195.8c-.39.12-1.44-2.79-4-6.94a47.51,47.51,0,0,0-5.11-6.82,30.63,30.63,0,0,0-7.91-6.46,31.41,31.41,0,0,0-9.72-3.17,35.21,35.21,0,0,0-8.44-.29c-4.84.43-7.75,1.55-7.9,1.15-.07-.15.58-.63,1.87-1.22a24.33,24.33,0,0,1,5.78-1.76,31.38,31.38,0,0,1,9-.26,30.33,30.33,0,0,1,10.63,3.26,29.68,29.68,0,0,1,8.48,7.17A38.54,38.54,0,0,1,282,188C284.25,192.54,284.69,195.72,284.39,195.8Z" style="fill:#FF725E"></path><path d="M259.14,173.34a11.55,11.55,0,0,1-1.56.18,34.47,34.47,0,0,0-4.21.7,31.21,31.21,0,0,0-21.23,16.89,32.69,32.69,0,0,0-1.63,3.94,12.57,12.57,0,0,1-.53,1.48s0-.15.06-.41.13-.65.27-1.13a28.22,28.22,0,0,1,1.49-4,30.3,30.3,0,0,1,21.49-17.09,27.59,27.59,0,0,1,4.27-.54c.51,0,.9,0,1.17,0S259.14,173.32,259.14,173.34Z" style="fill:#455a64"></path><path d="M266,176.46a34.14,34.14,0,0,1-3,1.65,72.21,72.21,0,0,0-7.06,4.35,70.62,70.62,0,0,0-6.49,5.16,32.83,32.83,0,0,1-2.58,2.28,3.32,3.32,0,0,1,.57-.73c.4-.45,1-1.07,1.76-1.82a53.39,53.39,0,0,1,13.63-9.57c1-.46,1.75-.81,2.31-1A3.37,3.37,0,0,1,266,176.46Z" style="fill:#455a64"></path><path d="M280,188.06a3.37,3.37,0,0,1-.05.87c-.07.55-.2,1.35-.41,2.32a39,39,0,0,1-2.4,7.41,40,40,0,0,1-3.81,6.8c-.58.81-1.07,1.45-1.44,1.87s-.57.65-.6.63.67-1,1.73-2.71a49.49,49.49,0,0,0,3.64-6.79,50.39,50.39,0,0,0,2.52-7.29A29.33,29.33,0,0,1,280,188.06Z" style="fill:#455a64"></path><path d="M272.8,219.33c-.08-.07,1.05-1.27,2.56-3.45a37.13,37.13,0,0,0,2.39-4,38.77,38.77,0,0,0,2.2-5.24,36.75,36.75,0,0,0,1.81-10.14c.09-2.65-.1-4.29,0-4.3a4.43,4.43,0,0,1,.2,1.15,24.46,24.46,0,0,1,.18,3.16,32.22,32.22,0,0,1-.35,4.69,37.64,37.64,0,0,1-1.33,5.61,36.71,36.71,0,0,1-2.27,5.3,32.87,32.87,0,0,1-2.52,4,25.5,25.5,0,0,1-2,2.44A5.68,5.68,0,0,1,272.8,219.33Z" style="fill:#455a64"></path><path d="M190.27,196.38s.42.43,1.19,1.15a11.4,11.4,0,0,0,3.71,2.38,7.33,7.33,0,0,0,6.26-.37,5.38,5.38,0,0,0,2.32-2.87,4.34,4.34,0,0,0-.4-3.82,1.85,1.85,0,0,0-1.59-.87,1.28,1.28,0,0,0-1.22,1.06,4.77,4.77,0,0,0,.85,3.54A5.87,5.87,0,0,0,204,198.7a5,5,0,0,0,2.94.21,5.93,5.93,0,0,0,3.55-2.4,11.28,11.28,0,0,0,.77-1.44,1.23,1.23,0,0,1-.08.42,4.94,4.94,0,0,1-.52,1.13,5.94,5.94,0,0,1-3.63,2.65,5.3,5.3,0,0,1-3.18-.17,6.34,6.34,0,0,1-2.88-2.25,5.21,5.21,0,0,1-1-3.93,2,2,0,0,1,.58-1,1.78,1.78,0,0,1,1.12-.44,2.37,2.37,0,0,1,2,1.08,4.8,4.8,0,0,1,.46,4.29,5.74,5.74,0,0,1-2.56,3.12,7.64,7.64,0,0,1-6.63.31,11,11,0,0,1-3.73-2.59,10.37,10.37,0,0,1-.8-.93A1.46,1.46,0,0,1,190.27,196.38Z" style="fill:#263238"></path><path d="M323,189.94a2.23,2.23,0,0,1-.58.12c-.38.07-.95.16-1.69.24a17.28,17.28,0,0,1-6.28-.25,9.5,9.5,0,0,1-3.89-2,6.52,6.52,0,0,1-2.24-4.47,5.48,5.48,0,0,1,.5-2.74,4.73,4.73,0,0,1,2-2.11,6.18,6.18,0,0,1,5.9,0,3.06,3.06,0,0,1,1.65,2.63,3,3,0,0,1-1.77,2.46,5.73,5.73,0,0,1-2.86.45,14.67,14.67,0,0,1-2.69-.45,14.08,14.08,0,0,1-7.67-5.19,13.89,13.89,0,0,1-2.5-5.75,11.7,11.7,0,0,1-.19-1.7,2.15,2.15,0,0,1,0-.6c.05,0,.05.82.37,2.26a14.2,14.2,0,0,0,2.6,5.57,13.86,13.86,0,0,0,7.49,5,14.55,14.55,0,0,0,2.6.41,5.27,5.27,0,0,0,2.61-.4,2.24,2.24,0,0,0,.07-4.19,5.66,5.66,0,0,0-5.39,0,4.52,4.52,0,0,0-2.26,4.37,6,6,0,0,0,2.05,4.18,9.3,9.3,0,0,0,3.7,2,18.23,18.23,0,0,0,6.16.4l1.7-.14A2.39,2.39,0,0,1,323,189.94Z" style="fill:#263238"></path><path d="M221.89,142.68a9.88,9.88,0,0,0-.56,2,6.88,6.88,0,0,0,1.51,5.23,7.47,7.47,0,0,0,7.5,2.24,4.73,4.73,0,0,0,3.5-2.91,2.89,2.89,0,0,0-.37-2.32,1.9,1.9,0,0,0-2.08-.87,2.86,2.86,0,0,0-1.8,1.6,3.29,3.29,0,0,0-.08,2.41,8.37,8.37,0,0,0,3,3.76,15.19,15.19,0,0,0,13.29,2.5c1.29-.38,2-.73,2-.67a2.53,2.53,0,0,1-.47.26,10.55,10.55,0,0,1-1.45.6,14.42,14.42,0,0,1-5.7.68,15.06,15.06,0,0,1-7.95-3,8.77,8.77,0,0,1-3.15-4,3.75,3.75,0,0,1,.09-2.77,3.35,3.35,0,0,1,2.15-1.9,2.43,2.43,0,0,1,2.63,1.09,3.4,3.4,0,0,1,.43,2.75,4.18,4.18,0,0,1-1.57,2.16,6.42,6.42,0,0,1-2.3,1.07,7.81,7.81,0,0,1-7.91-2.46,7,7,0,0,1-1.42-5.5,6,6,0,0,1,.48-1.5A2.06,2.06,0,0,1,221.89,142.68Z" style="fill:#263238"></path><path d="M272.09,234.86c.24-4.84,5.52-8.07,9.71-5.64,2.3,1.33,4.07,4,3.86,9.14-.57,13.71-14.21,10.32-14.22,9.92C271.44,248,271.81,240.53,272.09,234.86Z" style="fill:#ffbe9d"></path><path d="M275.84,243.26c.06,0,.23.18.63.38a2.35,2.35,0,0,0,1.78.11c1.47-.47,2.79-2.72,2.95-5.19a7.84,7.84,0,0,0-.52-3.44,2.78,2.78,0,0,0-1.72-1.91,1.22,1.22,0,0,0-1.44.6c-.2.37-.12.65-.2.67s-.28-.24-.15-.8a1.52,1.52,0,0,1,.58-.84,1.8,1.8,0,0,1,1.33-.29,3.34,3.34,0,0,1,2.41,2.22,8.22,8.22,0,0,1,.67,3.86c-.2,2.76-1.72,5.28-3.73,5.77a2.57,2.57,0,0,1-2.17-.45C275.85,243.59,275.79,243.28,275.84,243.26Z" style="fill:#eb996e"></path><path d="M400.18,326.56c-6.87-18-80.6-75.92-80.6-75.92L298.39,262l53.45,53.78,5.72,37.21s17.82,5.13,25.43,4.4C397.18,356,403.93,336.39,400.18,326.56Z" style="fill:#ffbe9d"></path><path d="M367,340.06a5.92,5.92,0,0,1-.71-1c-.48-.77-1.07-1.75-1.78-2.9-1.54-2.55-3.57-5.89-5.81-9.58s-4.43-7.07-6-9.47l-1.85-2.85a5.46,5.46,0,0,1-.63-1.08,5.54,5.54,0,0,1,.79,1c.49.64,1.17,1.58,2,2.76,1.65,2.35,3.84,5.67,6.14,9.4s4.28,7.17,5.68,9.68c.7,1.25,1.26,2.27,1.63,3A5.59,5.59,0,0,1,367,340.06Z" style="fill:#eb996e"></path><path d="M298.32,207.93c-2.11-.1-1.84,1.77-1.27,3.17s3.88,9.08,3.88,9.08-8-14.43-8.89-15.29-2.41-2.42-3.6-1.52-.68,2.12-.22,3.56c.42,1.29,4.61,11,5.5,13,.1.24.85,1.82.44,2.07-.29.58-1.55-.68-1.94-1.19l-6.15-8.12s-4.81-6.76-5.93-6.32c-2,.78-3,1.9-2.5,3.07S288.5,226,288.5,226l-9-10.82a4.18,4.18,0,0,0-2.35-1.38,2.44,2.44,0,0,0-2.41.74c-1.16,1.32,1.06,3.89,2.05,5.7.63,1.15,4.54,6.39,4.54,6.39l8.73,15.12-1.43.31L285.5,237l-3.32,9.8s4.63,8.12,9.06,12.92c1.86,2,7.15,2.27,7.15,2.27l21.31-9.38s-.5-8.78-1.09-10.85A70.23,70.23,0,0,0,313,230c-1.65-2.45-5.1-6-6.37-8.48S300.78,208.06,298.32,207.93Z" style="fill:#ffbe9d"></path><path d="M305.93,228.19c.07.07-.87,1.05-2,2.87a23.1,23.1,0,0,0-1.79,3.34,25.36,25.36,0,0,0-1.43,4.41,25.78,25.78,0,0,0-.53,4.6,23.65,23.65,0,0,0,.23,3.78c.32,2.14.76,3.42.67,3.45a2.92,2.92,0,0,1-.37-.87,8.68,8.68,0,0,1-.33-1.07,13.16,13.16,0,0,1-.33-1.45,20.4,20.4,0,0,1-.35-3.85,22.41,22.41,0,0,1,2-9.2,21.43,21.43,0,0,1,1.92-3.35c.3-.46.63-.84.9-1.18a8.28,8.28,0,0,1,.75-.83A3.33,3.33,0,0,1,305.93,228.19Z" style="fill:#eb996e"></path><path d="M298.52,244.87a21.48,21.48,0,0,0-5.62-1.08,14.78,14.78,0,0,0-3.15.3l-.15,0-.08-.11a9.92,9.92,0,0,1-1.34-2.22,10.48,10.48,0,0,1,1.69,2l-.22-.09a11.72,11.72,0,0,1,3.26-.4,12,12,0,0,1,4.1.77A4.14,4.14,0,0,1,298.52,244.87Z" style="fill:#eb996e"></path><path d="M306.14,223.76a26.23,26.23,0,0,1-2.93.81,52.07,52.07,0,0,0-13.41,5.72,26.45,26.45,0,0,1-2.62,1.55A13.47,13.47,0,0,1,289.6,230a39.6,39.6,0,0,1,6.5-3.5,40.68,40.68,0,0,1,7-2.27A13.33,13.33,0,0,1,306.14,223.76Z" style="fill:#eb996e"></path><path d="M284.74,232.52s.18.19.4.58a7.78,7.78,0,0,1,.7,1.77,8.14,8.14,0,0,1,.23,2.84,12.15,12.15,0,0,1-.86,3.36,23.93,23.93,0,0,1-1.41,3.13,12,12,0,0,1-1.66,2.29,8.36,8.36,0,0,1-1.45,1.24,1.92,1.92,0,0,1-.63.32c-.05-.08.79-.6,1.8-1.8a13.44,13.44,0,0,0,1.52-2.28,30.36,30.36,0,0,0,1.35-3.09,13.22,13.22,0,0,0,.86-3.22,8.46,8.46,0,0,0-.11-2.71C285.17,233.43,284.65,232.57,284.74,232.52Z" style="fill:#eb996e"></path></g><g id="freepik--Desk--inject-214"><path d="M469.72,477c0,.14-98.38.26-219.71.26S30.28,477.1,30.28,477s98.36-.26,219.73-.26S469.72,476.81,469.72,477Z" style="fill:#263238"></path></g></svg>